# xmcd CD database file
#
# Track frame offsets:
#	150
#	9040
#	29493
#	43256
#	57411
#	71471
#	85779
#	100934
#	118440
#	128465
#
# Disc length: 1858 seconds
#
# Revision: 0
# Processed by: cddbd v1.5.1PL0 Copyright (c) Steve Scherf et al.
# Submitted via: CDex 1.50
#
DISCID=7f07400a
DTITLE=Ela Fizgerald - TB
DYEAR=1900
DGENRE=Jazz
TTITLE0=Lover coe back to me
TTITLE1=Moanin' low
TTITLE2=Basin street blues
TTITLE3=Mi hapiness
TTITLE4=Satrway to the stars
TTITLE5=Talking a chance on
TTITLE6=Looking for a boy
TTITLE7=Someone to watch over me
TTITLE8=Undecided
TTITLE9=That old black magic
EXTD=
EXTT0=
EXTT1=
EXTT2=
EXTT3=
EXTT4=
EXTT5=
EXTT6=
EXTT7=
EXTT8=
EXTT9=
PLAYORDER=
